<mxfile host="app.diagrams.net" agent="Mozilla/5.0 (Windows NT 10.0; Win64; x64) AppleWebKit/537.36 (KHTML, like Gecko) Chrome/139.0.0.0 Safari/537.36" version="28.0.9">
  <diagram name="Page-1" id="gY9joF3YD0-PjVx57qXv">
    <mxGraphModel dx="2135" dy="910" grid="1" gridSize="10" guides="1" tooltips="1" connect="1" arrows="1" fold="1" page="1" pageScale="1" pageWidth="850" pageHeight="1100" math="0" shadow="0">
      <root>
        <mxCell id="0" />
        <mxCell id="1" parent="0" />
        <mxCell id="Kskn2MOylppoAT7lnNlY-1" value="Hotel" style="swimlane;fontStyle=1;align=center;verticalAlign=top;childLayout=stackLayout;horizontal=1;startSize=26;horizontalStack=0;resizeParent=1;resizeParentMax=0;resizeLast=0;collapsible=1;marginBottom=0;whiteSpace=wrap;html=1;" parent="1" vertex="1">
          <mxGeometry x="390" y="400" width="230" height="200" as="geometry">
            <mxRectangle x="350" y="240" width="70" height="30" as="alternateBounds" />
          </mxGeometry>
        </mxCell>
        <mxCell id="Kskn2MOylppoAT7lnNlY-2" value="- id : String&lt;br&gt;&lt;div&gt;- name : String&amp;nbsp;&lt;/div&gt;&lt;div&gt;- address : String&lt;/div&gt;&lt;div&gt;- rooms: List&amp;lt;Room&amp;gt;&lt;/div&gt;&lt;div&gt;- staff: List&amp;lt;Staff&amp;gt;&lt;/div&gt;" style="text;strokeColor=none;fillColor=none;align=left;verticalAlign=top;spacingLeft=4;spacingRight=4;overflow=hidden;rotatable=0;points=[[0,0.5],[1,0.5]];portConstraint=eastwest;whiteSpace=wrap;html=1;" parent="Kskn2MOylppoAT7lnNlY-1" vertex="1">
          <mxGeometry y="26" width="230" height="64" as="geometry" />
        </mxCell>
        <mxCell id="Kskn2MOylppoAT7lnNlY-3" value="" style="line;strokeWidth=1;fillColor=none;align=left;verticalAlign=middle;spacingTop=-1;spacingLeft=3;spacingRight=3;rotatable=0;labelPosition=right;points=[];portConstraint=eastwest;strokeColor=inherit;" parent="Kskn2MOylppoAT7lnNlY-1" vertex="1">
          <mxGeometry y="90" width="230" height="8" as="geometry" />
        </mxCell>
        <mxCell id="Kskn2MOylppoAT7lnNlY-4" value="&lt;div&gt;+ addRoom(room: Room): void&lt;/div&gt;&lt;div&gt;+ getAvailableRooms(from: Date, to: Date): List&amp;lt;Room&amp;gt;&lt;/div&gt;&lt;div&gt;+ addStaff(staff: Staff): void&lt;/div&gt;&lt;div&gt;+ getRoomByNumber(num: int): Room&lt;/div&gt;" style="text;strokeColor=none;fillColor=none;align=left;verticalAlign=top;spacingLeft=4;spacingRight=4;overflow=hidden;rotatable=0;points=[[0,0.5],[1,0.5]];portConstraint=eastwest;whiteSpace=wrap;html=1;" parent="Kskn2MOylppoAT7lnNlY-1" vertex="1">
          <mxGeometry y="98" width="230" height="102" as="geometry" />
        </mxCell>
        <mxCell id="AN0wBfZyaCoW5nnhu2_1-1" value="Room" style="swimlane;fontStyle=1;align=center;verticalAlign=top;childLayout=stackLayout;horizontal=1;startSize=26;horizontalStack=0;resizeParent=1;resizeParentMax=0;resizeLast=0;collapsible=1;marginBottom=0;whiteSpace=wrap;html=1;" parent="1" vertex="1">
          <mxGeometry x="290" y="150" width="230" height="186" as="geometry">
            <mxRectangle x="290" y="150" width="70" height="30" as="alternateBounds" />
          </mxGeometry>
        </mxCell>
        <mxCell id="AN0wBfZyaCoW5nnhu2_1-2" value="- roomNumber: int&lt;div&gt;- type: RoomType&lt;/div&gt;&lt;div&gt;- isAvailable: boolean&lt;/div&gt;&lt;div&gt;- pricePerNight: double&lt;/div&gt;" style="text;strokeColor=none;fillColor=none;align=left;verticalAlign=top;spacingLeft=4;spacingRight=4;overflow=hidden;rotatable=0;points=[[0,0.5],[1,0.5]];portConstraint=eastwest;whiteSpace=wrap;html=1;" parent="AN0wBfZyaCoW5nnhu2_1-1" vertex="1">
          <mxGeometry y="26" width="230" height="72" as="geometry" />
        </mxCell>
        <mxCell id="AN0wBfZyaCoW5nnhu2_1-3" value="" style="line;strokeWidth=1;fillColor=none;align=left;verticalAlign=middle;spacingTop=-1;spacingLeft=3;spacingRight=3;rotatable=0;labelPosition=right;points=[];portConstraint=eastwest;strokeColor=inherit;" parent="AN0wBfZyaCoW5nnhu2_1-1" vertex="1">
          <mxGeometry y="98" width="230" height="8" as="geometry" />
        </mxCell>
        <mxCell id="AN0wBfZyaCoW5nnhu2_1-4" value="+ checkAvailability(): boolean&lt;div&gt;+ setAvailability(status: boolen): void&lt;/div&gt;&lt;div&gt;+ getRoomDetails(): String&lt;/div&gt;" style="text;strokeColor=none;fillColor=none;align=left;verticalAlign=top;spacingLeft=4;spacingRight=4;overflow=hidden;rotatable=0;points=[[0,0.5],[1,0.5]];portConstraint=eastwest;whiteSpace=wrap;html=1;" parent="AN0wBfZyaCoW5nnhu2_1-1" vertex="1">
          <mxGeometry y="106" width="230" height="80" as="geometry" />
        </mxCell>
        <mxCell id="AN0wBfZyaCoW5nnhu2_1-8" value="RoomType" style="swimlane;fontStyle=0;childLayout=stackLayout;horizontal=1;startSize=26;fillColor=none;horizontalStack=0;resizeParent=1;resizeParentMax=0;resizeLast=0;collapsible=1;marginBottom=0;whiteSpace=wrap;html=1;" parent="1" vertex="1">
          <mxGeometry x="120" y="210" width="140" height="104" as="geometry">
            <mxRectangle x="120" y="210" width="100" height="30" as="alternateBounds" />
          </mxGeometry>
        </mxCell>
        <mxCell id="AN0wBfZyaCoW5nnhu2_1-9" value="SINGLE" style="text;strokeColor=none;fillColor=none;align=left;verticalAlign=top;spacingLeft=4;spacingRight=4;overflow=hidden;rotatable=0;points=[[0,0.5],[1,0.5]];portConstraint=eastwest;whiteSpace=wrap;html=1;" parent="AN0wBfZyaCoW5nnhu2_1-8" vertex="1">
          <mxGeometry y="26" width="140" height="26" as="geometry" />
        </mxCell>
        <mxCell id="AN0wBfZyaCoW5nnhu2_1-10" value="DOUBLE" style="text;strokeColor=none;fillColor=none;align=left;verticalAlign=top;spacingLeft=4;spacingRight=4;overflow=hidden;rotatable=0;points=[[0,0.5],[1,0.5]];portConstraint=eastwest;whiteSpace=wrap;html=1;" parent="AN0wBfZyaCoW5nnhu2_1-8" vertex="1">
          <mxGeometry y="52" width="140" height="26" as="geometry" />
        </mxCell>
        <mxCell id="AN0wBfZyaCoW5nnhu2_1-11" value="SUITE" style="text;strokeColor=none;fillColor=none;align=left;verticalAlign=top;spacingLeft=4;spacingRight=4;overflow=hidden;rotatable=0;points=[[0,0.5],[1,0.5]];portConstraint=eastwest;whiteSpace=wrap;html=1;" parent="AN0wBfZyaCoW5nnhu2_1-8" vertex="1">
          <mxGeometry y="78" width="140" height="26" as="geometry" />
        </mxCell>
        <mxCell id="AN0wBfZyaCoW5nnhu2_1-12" value="is a" style="endArrow=open;html=1;endSize=12;startArrow=diamondThin;startSize=14;startFill=1;edgeStyle=orthogonalEdgeStyle;align=left;verticalAlign=bottom;rounded=0;" parent="1" edge="1">
          <mxGeometry x="0.0184" relative="1" as="geometry">
            <mxPoint x="517" y="396" as="sourcePoint" />
            <mxPoint x="390" y="336" as="targetPoint" />
            <Array as="points">
              <mxPoint x="517" y="368" />
              <mxPoint x="390" y="368" />
            </Array>
            <mxPoint as="offset" />
          </mxGeometry>
        </mxCell>
        <mxCell id="AN0wBfZyaCoW5nnhu2_1-17" value="1" style="edgeLabel;html=1;align=center;verticalAlign=middle;resizable=0;points=[];" parent="AN0wBfZyaCoW5nnhu2_1-12" vertex="1" connectable="0">
          <mxGeometry x="-0.9252" relative="1" as="geometry">
            <mxPoint x="13" as="offset" />
          </mxGeometry>
        </mxCell>
        <mxCell id="AN0wBfZyaCoW5nnhu2_1-18" value="1..*" style="edgeLabel;html=1;align=center;verticalAlign=middle;resizable=0;points=[];" parent="AN0wBfZyaCoW5nnhu2_1-12" vertex="1" connectable="0">
          <mxGeometry x="0.9832" y="2" relative="1" as="geometry">
            <mxPoint x="-18" y="13" as="offset" />
          </mxGeometry>
        </mxCell>
        <mxCell id="AN0wBfZyaCoW5nnhu2_1-19" value="" style="endArrow=open;endFill=1;endSize=12;html=1;rounded=0;entryX=0.5;entryY=0;entryDx=0;entryDy=0;exitX=0.435;exitY=0;exitDx=0;exitDy=0;exitPerimeter=0;" parent="1" source="AN0wBfZyaCoW5nnhu2_1-1" target="AN0wBfZyaCoW5nnhu2_1-8" edge="1">
          <mxGeometry width="160" relative="1" as="geometry">
            <mxPoint x="380" y="130" as="sourcePoint" />
            <mxPoint x="190" y="191.67000000000002" as="targetPoint" />
            <Array as="points">
              <mxPoint x="390" y="132" />
              <mxPoint x="190" y="132" />
            </Array>
          </mxGeometry>
        </mxCell>
        <mxCell id="AN0wBfZyaCoW5nnhu2_1-20" value="1" style="edgeLabel;html=1;align=center;verticalAlign=middle;resizable=0;points=[];" parent="AN0wBfZyaCoW5nnhu2_1-19" vertex="1" connectable="0">
          <mxGeometry x="-0.8857" y="1" relative="1" as="geometry">
            <mxPoint x="12" as="offset" />
          </mxGeometry>
        </mxCell>
        <mxCell id="AN0wBfZyaCoW5nnhu2_1-21" value="1" style="edgeLabel;html=1;align=center;verticalAlign=middle;resizable=0;points=[];" parent="AN0wBfZyaCoW5nnhu2_1-19" vertex="1" connectable="0">
          <mxGeometry x="0.8286" y="1" relative="1" as="geometry">
            <mxPoint x="-11" as="offset" />
          </mxGeometry>
        </mxCell>
        <mxCell id="AN0wBfZyaCoW5nnhu2_1-26" value="Guest" style="swimlane;fontStyle=1;align=center;verticalAlign=top;childLayout=stackLayout;horizontal=1;startSize=26;horizontalStack=0;resizeParent=1;resizeParentMax=0;resizeLast=0;collapsible=1;marginBottom=0;whiteSpace=wrap;html=1;" parent="1" vertex="1">
          <mxGeometry x="60" y="426" width="160" height="168" as="geometry" />
        </mxCell>
        <mxCell id="AN0wBfZyaCoW5nnhu2_1-27" value="&lt;div&gt;- id: String&lt;/div&gt;- name: String&amp;nbsp;&lt;div&gt;- email: String&amp;nbsp;&lt;/div&gt;&lt;div&gt;- phone: String&lt;/div&gt;&lt;div&gt;- bookings: List&amp;lt;Booking&amp;gt;&lt;/div&gt;" style="text;strokeColor=none;fillColor=none;align=left;verticalAlign=top;spacingLeft=4;spacingRight=4;overflow=hidden;rotatable=0;points=[[0,0.5],[1,0.5]];portConstraint=eastwest;whiteSpace=wrap;html=1;" parent="AN0wBfZyaCoW5nnhu2_1-26" vertex="1">
          <mxGeometry y="26" width="160" height="94" as="geometry" />
        </mxCell>
        <mxCell id="AN0wBfZyaCoW5nnhu2_1-28" value="" style="line;strokeWidth=1;fillColor=none;align=left;verticalAlign=middle;spacingTop=-1;spacingLeft=3;spacingRight=3;rotatable=0;labelPosition=right;points=[];portConstraint=eastwest;strokeColor=inherit;" parent="AN0wBfZyaCoW5nnhu2_1-26" vertex="1">
          <mxGeometry y="120" width="160" height="8" as="geometry" />
        </mxCell>
        <mxCell id="AN0wBfZyaCoW5nnhu2_1-29" value="+ getContactInfo(): String" style="text;strokeColor=none;fillColor=none;align=left;verticalAlign=top;spacingLeft=4;spacingRight=4;overflow=hidden;rotatable=0;points=[[0,0.5],[1,0.5]];portConstraint=eastwest;whiteSpace=wrap;html=1;" parent="AN0wBfZyaCoW5nnhu2_1-26" vertex="1">
          <mxGeometry y="128" width="160" height="40" as="geometry" />
        </mxCell>
        <mxCell id="AN0wBfZyaCoW5nnhu2_1-30" value="Booking" style="swimlane;fontStyle=1;align=center;verticalAlign=top;childLayout=stackLayout;horizontal=1;startSize=26;horizontalStack=0;resizeParent=1;resizeParentMax=0;resizeLast=0;collapsible=1;marginBottom=0;whiteSpace=wrap;html=1;" parent="1" vertex="1">
          <mxGeometry x="90" y="670" width="160" height="160" as="geometry" />
        </mxCell>
        <mxCell id="AN0wBfZyaCoW5nnhu2_1-31" value="- bookingId: String&lt;div&gt;- checkInDate: Date&lt;/div&gt;&lt;div&gt;- checkOutDate: Date&lt;/div&gt;&lt;div&gt;- status: String&lt;/div&gt;&lt;div&gt;- guest: Guest&lt;/div&gt;&lt;div&gt;- room: Room&lt;/div&gt;" style="text;strokeColor=none;fillColor=none;align=left;verticalAlign=top;spacingLeft=4;spacingRight=4;overflow=hidden;rotatable=0;points=[[0,0.5],[1,0.5]];portConstraint=eastwest;whiteSpace=wrap;html=1;" parent="AN0wBfZyaCoW5nnhu2_1-30" vertex="1">
          <mxGeometry y="26" width="160" height="94" as="geometry" />
        </mxCell>
        <mxCell id="AN0wBfZyaCoW5nnhu2_1-32" value="" style="line;strokeWidth=1;fillColor=none;align=left;verticalAlign=middle;spacingTop=-1;spacingLeft=3;spacingRight=3;rotatable=0;labelPosition=right;points=[];portConstraint=eastwest;strokeColor=inherit;" parent="AN0wBfZyaCoW5nnhu2_1-30" vertex="1">
          <mxGeometry y="120" width="160" height="8" as="geometry" />
        </mxCell>
        <mxCell id="AN0wBfZyaCoW5nnhu2_1-33" value="+ getDuration(): int" style="text;strokeColor=none;fillColor=none;align=left;verticalAlign=top;spacingLeft=4;spacingRight=4;overflow=hidden;rotatable=0;points=[[0,0.5],[1,0.5]];portConstraint=eastwest;whiteSpace=wrap;html=1;" parent="AN0wBfZyaCoW5nnhu2_1-30" vertex="1">
          <mxGeometry y="128" width="160" height="32" as="geometry" />
        </mxCell>
        <mxCell id="AN0wBfZyaCoW5nnhu2_1-34" value="" style="endArrow=diamondThin;endFill=0;endSize=24;html=1;rounded=0;entryX=0.567;entryY=0.013;entryDx=0;entryDy=0;entryPerimeter=0;exitX=0.5;exitY=0;exitDx=0;exitDy=0;" parent="1" edge="1">
          <mxGeometry width="160" relative="1" as="geometry">
            <mxPoint x="169.28" y="670.82" as="sourcePoint" />
            <mxPoint x="150.00000000000003" y="429.00399999999996" as="targetPoint" />
            <Array as="points">
              <mxPoint x="170" y="640" />
              <mxPoint x="220" y="640" />
              <mxPoint x="270" y="640" />
              <mxPoint x="270" y="560" />
              <mxPoint x="270" y="370" />
              <mxPoint x="150" y="370" />
              <mxPoint x="150" y="410" />
            </Array>
          </mxGeometry>
        </mxCell>
        <mxCell id="AN0wBfZyaCoW5nnhu2_1-38" value="0..*" style="edgeLabel;html=1;align=center;verticalAlign=middle;resizable=0;points=[];" parent="AN0wBfZyaCoW5nnhu2_1-34" vertex="1" connectable="0">
          <mxGeometry x="-0.9083" relative="1" as="geometry">
            <mxPoint x="-10" as="offset" />
          </mxGeometry>
        </mxCell>
        <mxCell id="AN0wBfZyaCoW5nnhu2_1-39" value="1" style="edgeLabel;html=1;align=center;verticalAlign=middle;resizable=0;points=[];" parent="AN0wBfZyaCoW5nnhu2_1-34" vertex="1" connectable="0">
          <mxGeometry x="0.925" y="2" relative="1" as="geometry">
            <mxPoint x="8" y="-17" as="offset" />
          </mxGeometry>
        </mxCell>
        <mxCell id="ithQqcvLm4VSc6w3O1Kl-5" value="has a" style="edgeLabel;html=1;align=center;verticalAlign=middle;resizable=0;points=[];" vertex="1" connectable="0" parent="AN0wBfZyaCoW5nnhu2_1-34">
          <mxGeometry x="-0.0612" y="-4" relative="1" as="geometry">
            <mxPoint as="offset" />
          </mxGeometry>
        </mxCell>
        <mxCell id="ithQqcvLm4VSc6w3O1Kl-2" value="" style="endArrow=none;html=1;edgeStyle=orthogonalEdgeStyle;rounded=0;entryX=0.6;entryY=0.01;entryDx=0;entryDy=0;entryPerimeter=0;exitX=1.013;exitY=0.582;exitDx=0;exitDy=0;exitPerimeter=0;" edge="1" parent="1" source="AN0wBfZyaCoW5nnhu2_1-31" target="AN0wBfZyaCoW5nnhu2_1-1">
          <mxGeometry relative="1" as="geometry">
            <mxPoint x="260" y="749" as="sourcePoint" />
            <mxPoint x="430" y="110" as="targetPoint" />
            <Array as="points">
              <mxPoint x="252" y="749" />
              <mxPoint x="800" y="749" />
              <mxPoint x="800" y="110" />
              <mxPoint x="428" y="110" />
            </Array>
          </mxGeometry>
        </mxCell>
        <mxCell id="ithQqcvLm4VSc6w3O1Kl-3" value="1" style="edgeLabel;resizable=0;html=1;align=left;verticalAlign=bottom;" connectable="0" vertex="1" parent="ithQqcvLm4VSc6w3O1Kl-2">
          <mxGeometry x="-1" relative="1" as="geometry">
            <mxPoint x="8" y="-9" as="offset" />
          </mxGeometry>
        </mxCell>
        <mxCell id="ithQqcvLm4VSc6w3O1Kl-4" value="1" style="edgeLabel;resizable=0;html=1;align=right;verticalAlign=bottom;" connectable="0" vertex="1" parent="ithQqcvLm4VSc6w3O1Kl-2">
          <mxGeometry x="1" relative="1" as="geometry">
            <mxPoint x="12" y="-12" as="offset" />
          </mxGeometry>
        </mxCell>
      </root>
    </mxGraphModel>
  </diagram>
</mxfile>
